# xmcd
# 
# Track frame offsets:
#     150
#     15131
#     33197
#     48001
#     65001
#     79636
#     94995
#     112749
#     126379
#     139389
#     154200
#     166005
# 
# Disc length: 2432
# 
# Revision: 2
# Processed by: cddbd v1.5.2PL0 Copyright (c) Steve Scherf et al.
# Submitted via: BonkEnc v1.0.8
# 
DISCID=8c097e0c
DTITLE=Patricio e Clodoaldo - O Show ja vai começar
DYEAR=2008
DGENRE=Country
TTITLE0=O SHOW JÁ VAI COMEÇAR
TTITLE1=SÓ UM MINUTO
TTITLE2=SEU TEMPERO
TTITLE3=CAMPO MINADO
TTITLE4=VOCÊ PODE TÁ NO MEIO
TTITLE5=VENHA VIVER JUNTO A MIM
TTITLE6=SÓ QUERO AMAR VOCÊ
TTITLE7=AMOR OU PAIXÃO
TTITLE8=O JOGO DA VIDA
TTITLE9=NÃO ESTAMOS SOZINHOS
TTITLE10=PAGODE EMBOLADO
TTITLE11=SOL E LUA
EXTD=CD Sertanejo
EXTT0=
EXTT1=
EXTT2=
EXTT3=
EXTT4=
EXTT5=
EXTT6=
EXTT7=
EXTT8=
EXTT9=
EXTT10=
EXTT11=
PLAYORDER=
